<svg width="3000" height="1000" viewBox="0 0 3000 1000" fill="none" xmlns="http://www.w3.org/2000/svg">
<g clip-path="url(#clip0_3088_716)">
<rect width="3000" height="1000" fill="#131313"/>
<path d="M3087.93 957.016L3087.6 983.112C3073.98 1520.83 2640.58 1954.22 2102.87 1967.84L2076.77 1968.17H1595.27V1775.57H2076.77C2528.85 1775.57 2895.33 1409.09 2895.33 957.016V571.811H3087.93V957.016Z" fill="#4141FC" fill-opacity="0.12"/>
<path d="M2654.57 716.264L2654.29 737.375C2643.27 1172.68 2292.43 1523.52 1857.13 1534.54L1836.02 1534.82H1595.27V1342.22H1836.02C2181.72 1342.22 2461.97 1061.97 2461.97 716.264V571.811H2654.57V716.264Z" fill="#4141FC" fill-opacity="0.12"/>
<path d="M1836.02 -583.797L1857.13 -583.514C2299.45 -572.315 2654.57 -210.257 2654.57 234.76V379.21H2461.97V234.76C2461.97 -110.945 2181.72 -391.195 1836.02 -391.195H1595.27V-583.797H1836.02Z" fill="#4141FC" fill-opacity="0.12"/>
<path d="M2076.77 -969L2102.87 -968.67C2649.25 -954.828 3087.93 -507.564 3087.93 42.1572V379.21H2895.33V42.1572C2895.33 -409.919 2528.85 -776.4 2076.77 -776.4H1595.27V-969H2076.77Z" fill="#4141FC" fill-opacity="0.12"/>
<path d="M102.603 957.016C102.603 1409.09 469.084 1775.57 921.16 1775.57H1402.66V1968.17H921.16L895.061 1967.84C357.348 1954.22 -76.048 1520.83 -89.6704 983.112L-90 957.016V571.811H102.603V957.016Z" fill="#4141FC" fill-opacity="0.12"/>
<path d="M535.955 716.264C535.955 1061.97 816.206 1342.22 1161.91 1342.22H1402.66V1534.82H1161.91L1140.8 1534.54C705.496 1523.52 354.657 1172.68 343.635 737.377L343.354 716.264V571.811H535.955V716.264Z" fill="#4141FC" fill-opacity="0.12"/>
<path d="M1402.66 -776.397H921.16C469.084 -776.397 102.603 -409.919 102.603 42.1572V379.21H-90V42.1572C-89.9996 -507.564 348.676 -954.828 895.061 -968.67L921.16 -969H1402.66V-776.397Z" fill="#4141FC" fill-opacity="0.12"/>
<path d="M1402.66 -391.195H1161.91C816.206 -391.195 535.955 -110.945 535.955 234.76V379.21H343.354V234.76C343.354 -210.257 698.48 -572.315 1140.8 -583.514L1161.91 -583.797H1402.66V-391.195Z" fill="#4141FC" fill-opacity="0.12"/>
<path d="M1387.9 -176.312C1075.67 -168.406 824.999 87.1763 824.999 401.305V593.905L825.187 608.812C832.968 916.083 1080.63 1163.74 1387.9 1171.52L1402.8 1171.71L1402.8 625.595C1402.8 205.595 1402.8 517.086 1402.8 304.345V151.845C1402.8 -54.2416 1402.8 151.845 1402.8 64.252L1402.8 16.1025V-176.5L1387.9 -176.312Z" fill="#4141FC" fill-opacity="0.12"/>
<path d="M1609.91 -176.312C1922.13 -168.406 2172.81 87.1763 2172.81 401.305V593.905L2172.62 608.812C2164.84 916.083 1917.18 1163.74 1609.91 1171.52L1595 1171.71L1595 625.595C1595 205.595 1595 517.086 1595 304.345V151.845C1595 -54.2416 1595 151.845 1595 64.252L1595 16.1025V-176.5L1609.91 -176.312Z" fill="#4141FC" fill-opacity="0.12"/>
<g clip-path="url(#clip1_3088_716)">
<rect x="999" y="340.679" width="1001.34" height="324.099" rx="20.0267" fill="#F5F5FF"/>
<rect x="999" y="340.679" width="1001.34" height="249.333" rx="20.0267" fill="#131313"/>
<g clip-path="url(#clip2_3088_716)">
<rect width="226.786" height="226.786" transform="translate(1017.96 352.373)" fill="url(#paint0_radial_3088_716)"/>
<path d="M1228.46 493.536L1228.44 495.133C1227.61 528.024 1201.1 554.534 1168.21 555.367L1166.61 555.387H1137.16V543.605H1166.61C1194.26 543.605 1216.68 521.189 1216.68 493.536V469.974H1228.46V493.536ZM1201.95 478.81L1201.94 480.102C1201.26 506.728 1179.8 528.188 1153.17 528.862L1151.88 528.88H1137.16V517.099H1151.88C1173.03 517.099 1190.17 499.956 1190.17 478.81V469.974H1201.95V478.81ZM1138.07 422.861C1157.17 423.345 1172.5 438.979 1172.5 458.193V469.974L1172.49 470.886C1172.01 489.681 1156.86 504.83 1138.07 505.306L1137.16 505.317V493.536C1150.17 493.536 1160.72 482.987 1160.72 469.974V458.193C1160.72 445.587 1150.82 435.294 1138.37 434.662L1137.16 434.631V422.85L1138.07 422.861ZM1151.88 399.287L1153.17 399.305C1180.23 399.99 1201.95 422.137 1201.95 449.357V458.192H1190.17V449.357C1190.17 428.211 1173.03 411.068 1151.88 411.068H1137.16V399.287H1151.88ZM1166.61 375.726L1168.21 375.745C1201.63 376.592 1228.46 403.951 1228.46 437.576V458.192H1216.68V437.576C1216.68 409.923 1194.26 387.507 1166.61 387.507H1137.16V375.726H1166.61Z" fill="#F5F5FF"/>
<path d="M1045.86 493.536C1045.86 521.189 1068.28 543.605 1095.93 543.605H1125.38V555.387H1095.93L1094.33 555.367C1061.44 554.534 1034.93 528.024 1034.1 495.133L1034.08 493.536V469.974H1045.86V493.536ZM1072.37 478.81C1072.37 499.956 1089.51 517.098 1110.65 517.099H1125.38V528.88H1110.65L1109.36 528.862C1082.74 528.188 1061.28 506.728 1060.6 480.102L1060.58 478.81V469.974H1072.37V478.81ZM1125.38 434.631L1124.17 434.662C1111.72 435.294 1101.82 445.588 1101.82 458.193V469.974C1101.82 482.987 1112.37 493.536 1125.38 493.536V505.317L1124.47 505.306C1105.67 504.83 1090.53 489.681 1090.05 470.886L1090.04 469.974V458.193C1090.04 438.979 1105.37 423.345 1124.47 422.861L1125.38 422.85V434.631ZM1125.38 387.507H1095.93C1068.28 387.507 1045.86 409.923 1045.86 437.576V458.192H1034.08V437.576C1034.08 403.951 1060.91 376.592 1094.33 375.745L1095.93 375.726H1125.38V387.507ZM1125.38 411.068H1110.65C1089.51 411.069 1072.37 428.211 1072.37 449.357V458.192H1060.58V449.357C1060.58 422.137 1082.31 399.99 1109.36 399.305L1110.65 399.287H1125.38V411.068Z" fill="#F5F5FF"/>
<path d="M1125.38 496.481L1113.59 496.481L1113.59 431.685L1125.38 431.685L1125.38 496.481Z" fill="#F5F5FF"/>
<path d="M1097.4 450.83L1110.65 430.213L1119.49 431.686L1118.02 475.865L1115.07 497.954L1098.87 483.228L1097.4 450.83Z" fill="#F5F5FF"/>
<path d="M1165.14 450.83L1151.89 430.213L1143.05 431.686L1144.52 475.865L1147.47 497.954L1163.67 483.228L1165.14 450.83Z" fill="#F5F5FF"/>
<path d="M1148.94 496.481L1137.16 496.481L1137.16 431.685L1148.94 431.685L1148.94 496.481Z" fill="#F5F5FF"/>
<rect width="226.786" height="226.786" transform="translate(1017.96 352.373)" fill="url(#paint1_radial_3088_716)"/>
<path d="M1228.46 493.536L1228.44 495.133C1227.61 528.024 1201.1 554.534 1168.21 555.367L1166.61 555.387H1137.16V543.605H1166.61C1194.26 543.605 1216.68 521.189 1216.68 493.536V469.974H1228.46V493.536ZM1201.95 478.81L1201.94 480.102C1201.26 506.728 1179.8 528.188 1153.17 528.862L1151.88 528.88H1137.16V517.099H1151.88C1173.03 517.099 1190.17 499.956 1190.17 478.81V469.974H1201.95V478.81ZM1138.07 422.861C1157.17 423.345 1172.5 438.979 1172.5 458.193V469.974L1172.49 470.886C1172.01 489.681 1156.86 504.83 1138.07 505.306L1137.16 505.317V493.536C1150.17 493.536 1160.72 482.987 1160.72 469.974V458.193C1160.72 445.587 1150.82 435.294 1138.37 434.662L1137.16 434.631V422.85L1138.07 422.861ZM1151.88 399.287L1153.17 399.305C1180.23 399.99 1201.95 422.137 1201.95 449.357V458.192H1190.17V449.357C1190.17 428.211 1173.03 411.068 1151.88 411.068H1137.16V399.287H1151.88ZM1166.61 375.726L1168.21 375.745C1201.63 376.592 1228.46 403.951 1228.46 437.576V458.192H1216.68V437.576C1216.68 409.923 1194.26 387.507 1166.61 387.507H1137.16V375.726H1166.61Z" fill="#F5F5FF"/>
<path d="M1045.86 493.536C1045.86 521.189 1068.28 543.605 1095.93 543.605H1125.38V555.387H1095.93L1094.33 555.367C1061.44 554.534 1034.93 528.024 1034.1 495.133L1034.08 493.536V469.974H1045.86V493.536ZM1072.37 478.81C1072.37 499.956 1089.51 517.098 1110.65 517.099H1125.38V528.88H1110.65L1109.36 528.862C1082.74 528.188 1061.28 506.728 1060.6 480.102L1060.58 478.81V469.974H1072.37V478.81ZM1125.38 434.631L1124.17 434.662C1111.72 435.294 1101.82 445.588 1101.82 458.193V469.974C1101.82 482.987 1112.37 493.536 1125.38 493.536V505.317L1124.47 505.306C1105.67 504.83 1090.53 489.681 1090.05 470.886L1090.04 469.974V458.193C1090.04 438.979 1105.37 423.345 1124.47 422.861L1125.38 422.85V434.631ZM1125.38 387.507H1095.93C1068.28 387.507 1045.86 409.923 1045.86 437.576V458.192H1034.08V437.576C1034.08 403.951 1060.91 376.592 1094.33 375.745L1095.93 375.726H1125.38V387.507ZM1125.38 411.068H1110.65C1089.51 411.069 1072.37 428.211 1072.37 449.357V458.192H1060.58V449.357C1060.58 422.137 1082.31 399.99 1109.36 399.305L1110.65 399.287H1125.38V411.068Z" fill="#F5F5FF"/>
<path d="M1125.38 496.481L1113.6 496.481L1113.6 431.685L1125.38 431.685L1125.38 496.481Z" fill="#F5F5FF"/>
<path d="M1097.4 450.83L1110.65 430.213L1119.49 431.686L1118.02 475.865L1115.07 497.954L1098.87 483.228L1097.4 450.83Z" fill="#F5F5FF"/>
<path d="M1165.14 450.83L1151.89 430.213L1143.05 431.686L1144.52 475.865L1147.47 497.954L1163.67 483.228L1165.14 450.83Z" fill="#F5F5FF"/>
<path d="M1148.94 496.481L1137.16 496.481L1137.16 431.685L1148.94 431.685L1148.94 496.481Z" fill="#F5F5FF"/>
</g>
<path d="M1273.04 516.241V405.135H1318.96C1326.19 405.135 1332.21 406.44 1337.03 409.05C1341.94 411.559 1345.86 415.272 1348.77 420.19C1351.68 425.008 1353.74 430.829 1354.94 437.654C1356.25 444.479 1356.9 452.157 1356.9 460.688C1356.9 472.933 1355.49 483.17 1352.68 491.4C1349.87 499.53 1345.66 505.702 1340.04 509.918C1334.42 514.133 1327.39 516.241 1318.96 516.241H1273.04ZM1291.56 499.53H1317.15C1322.27 499.53 1326.34 498.024 1329.35 495.013C1332.46 492.002 1334.72 487.586 1336.12 481.765C1337.63 475.944 1338.38 468.918 1338.38 460.688C1338.38 453.06 1337.93 446.737 1337.03 441.719C1336.12 436.7 1334.82 432.736 1333.11 429.825C1331.41 426.915 1329.2 424.857 1326.49 423.653C1323.88 422.448 1320.77 421.846 1317.15 421.846H1291.56V499.53Z" fill="#F5F5FF"/>
<path d="M1366.39 516.241L1402.52 405.135H1426L1462.14 516.241H1442.71L1434.13 489.894H1393.94L1385.51 516.241H1366.39ZM1398.3 473.184H1429.62L1413.96 421.093L1398.3 473.184Z" fill="#F5F5FF"/>
<path d="M1492.22 516.241V421.846H1460.31V405.135H1542.66V421.846H1510.89V516.241H1492.22Z" fill="#F5F5FF"/>
<path d="M1541.05 516.241L1577.18 405.135H1600.66L1636.8 516.241H1617.37L1608.79 489.894H1568.6L1560.17 516.241H1541.05ZM1572.96 473.184H1604.28L1588.62 421.093L1572.96 473.184Z" fill="#F5F5FF"/>
<path d="M1689.85 516.241V405.135H1735.76C1742.99 405.135 1749.01 406.44 1753.83 409.05C1758.75 411.559 1762.66 415.272 1765.57 420.19C1768.48 425.008 1770.54 430.829 1771.75 437.654C1773.05 444.479 1773.7 452.157 1773.7 460.688C1773.7 472.933 1772.3 483.17 1769.49 491.4C1766.68 499.53 1762.46 505.702 1756.84 509.918C1751.22 514.133 1744.19 516.241 1735.76 516.241H1689.85ZM1708.36 499.53H1733.96C1739.08 499.53 1743.14 498.024 1746.15 495.013C1749.26 492.002 1751.52 487.586 1752.93 481.765C1754.43 475.944 1755.19 468.918 1755.19 460.688C1755.19 453.06 1754.73 446.737 1753.83 441.719C1752.93 436.7 1751.62 432.736 1749.92 429.825C1748.21 426.915 1746 424.857 1743.29 423.653C1740.68 422.448 1737.57 421.846 1733.96 421.846H1708.36V499.53Z" fill="#F5F5FF"/>
<path d="M1817.33 516.993C1814.92 516.993 1812.21 516.742 1809.2 516.241C1806.29 515.839 1803.48 514.886 1800.77 513.38C1798.06 511.774 1795.85 509.416 1794.14 506.304C1792.44 503.193 1791.58 498.927 1791.58 493.508V429.374C1791.58 424.656 1792.29 420.742 1793.69 417.631C1795.1 414.419 1796.95 411.91 1799.26 410.103C1801.67 408.297 1804.28 407.042 1807.09 406.34C1810 405.537 1812.86 405.135 1815.67 405.135C1822.7 405.135 1829.02 405.236 1834.64 405.436C1840.26 405.637 1845.38 405.838 1850 406.039C1854.72 406.239 1859.08 406.49 1863.1 406.791V422.298H1821.09C1817.68 422.298 1814.97 423.151 1812.96 424.857C1811.06 426.563 1810.1 429.223 1810.1 432.836V452.558L1856.32 453.612V468.215L1810.1 469.269V488.389C1810.1 491.4 1810.6 493.708 1811.61 495.314C1812.71 496.92 1814.07 498.024 1815.67 498.626C1817.38 499.229 1819.14 499.53 1820.94 499.53H1863.1V515.036C1858.68 515.438 1853.86 515.789 1848.64 516.09C1843.42 516.291 1838.1 516.441 1832.68 516.542C1827.37 516.742 1822.25 516.893 1817.33 516.993Z" fill="#F5F5FF"/>
<path d="M1943.75 516.241L1874.2 405.135H1894.67L1964.38 516.241H1943.75ZM1874.65 516.241L1911.38 456.322L1921.02 472.13L1895.13 516.241H1874.65ZM1927.34 466.258L1918.01 450.3L1944.2 405.135H1964.83L1927.34 466.258Z" fill="#F5F5FF"/>
<path d="M1034.16 647.005L1046.5 609.063H1054.52L1066.86 647.005H1060.23L1057.3 638.008H1043.57L1040.69 647.005H1034.16ZM1045.06 632.301H1055.75L1050.41 614.513L1045.06 632.301Z" fill="#131313"/>
<path d="M1071.52 647.005V609.063H1077.84V647.005H1071.52Z" fill="#131313"/>
<path d="M1098.38 647.005V609.063H1113.8C1115.21 609.063 1116.53 609.235 1117.76 609.578C1119.03 609.886 1120.14 610.469 1121.1 611.326C1122.1 612.182 1122.87 613.382 1123.42 614.924C1124 616.432 1124.29 618.403 1124.29 620.837C1124.29 622.722 1124.1 624.298 1123.72 625.566C1123.35 626.8 1122.85 627.811 1122.23 628.6C1121.62 629.388 1120.91 630.005 1120.13 630.451C1119.37 630.862 1118.62 631.205 1117.86 631.479L1125.16 647.005H1118.74L1112.16 632.404C1111.68 632.404 1111.11 632.404 1110.46 632.404C1109.84 632.404 1109.19 632.404 1108.51 632.404C1107.82 632.37 1107.15 632.353 1106.5 632.353C1105.85 632.318 1105.25 632.301 1104.7 632.301V647.005H1098.38ZM1104.7 627.314H1112.72C1113.48 627.314 1114.16 627.229 1114.78 627.057C1115.4 626.852 1115.94 626.509 1116.42 626.029C1116.9 625.549 1117.26 624.898 1117.5 624.076C1117.78 623.253 1117.92 622.19 1117.92 620.888C1117.92 619.62 1117.78 618.592 1117.5 617.803C1117.26 616.981 1116.9 616.364 1116.42 615.953C1115.94 615.507 1115.38 615.199 1114.73 615.027C1114.11 614.856 1113.44 614.77 1112.72 614.77H1104.7V627.314Z" fill="#131313"/>
<path d="M1144.24 647.262C1142.15 647.262 1140.22 647.091 1138.43 646.748C1136.65 646.371 1135.11 645.737 1133.81 644.846C1132.51 643.92 1131.49 642.669 1130.77 641.093C1130.09 639.482 1129.75 637.425 1129.75 634.923V609.063H1136.07V634.923C1136.07 636.568 1136.4 637.888 1137.05 638.882C1137.7 639.842 1138.62 640.527 1139.82 640.938C1141.06 641.35 1142.53 641.555 1144.24 641.555C1145.96 641.555 1147.41 641.35 1148.61 640.938C1149.85 640.527 1150.79 639.842 1151.44 638.882C1152.09 637.888 1152.42 636.568 1152.42 634.923V609.063H1158.74V634.923C1158.74 637.425 1158.38 639.482 1157.66 641.093C1156.98 642.669 1155.98 643.92 1154.68 644.846C1153.38 645.737 1151.84 646.371 1150.05 646.748C1148.31 647.091 1146.37 647.262 1144.24 647.262Z" fill="#131313"/>
<path d="M1165.72 647.005V609.063H1170.81L1188.08 636.157V609.063H1194.45V647.005H1189.36L1172.09 619.911V647.005H1165.72Z" fill="#131313"/>
<path d="M1212.36 647.313C1211.43 647.313 1210.44 647.279 1209.38 647.211C1208.35 647.176 1207.29 647.108 1206.19 647.005C1205.13 646.868 1204.12 646.748 1203.16 646.645C1202.2 646.508 1201.34 646.354 1200.59 646.182V641.195C1201.55 641.264 1202.66 641.333 1203.93 641.401C1205.23 641.47 1206.58 641.521 1207.99 641.555C1209.39 641.59 1210.75 641.607 1212.05 641.607C1213.42 641.607 1214.64 641.487 1215.7 641.247C1216.76 640.973 1217.59 640.51 1218.17 639.859C1218.75 639.208 1219.04 638.282 1219.04 637.083V635.283C1219.04 633.947 1218.67 632.918 1217.91 632.199C1217.16 631.479 1216.04 631.119 1214.57 631.119H1211.02C1207.56 631.119 1204.89 630.365 1203 628.857C1201.15 627.349 1200.23 624.761 1200.23 621.094V619.14C1200.23 615.473 1201.24 612.834 1203.26 611.223C1205.32 609.578 1208.25 608.755 1212.05 608.755C1213.35 608.755 1214.69 608.824 1216.06 608.961C1217.47 609.063 1218.8 609.201 1220.07 609.372C1221.34 609.543 1222.42 609.732 1223.31 609.937V614.924C1221.8 614.822 1220.07 614.719 1218.12 614.616C1216.2 614.513 1214.42 614.462 1212.77 614.462C1211.47 614.462 1210.32 614.599 1209.33 614.873C1208.33 615.147 1207.58 615.644 1207.06 616.364C1206.55 617.049 1206.29 618.078 1206.29 619.449V620.682C1206.29 622.293 1206.72 623.424 1207.58 624.076C1208.47 624.727 1209.74 625.052 1211.38 625.052H1215.34C1217.57 625.052 1219.4 625.464 1220.84 626.286C1222.28 627.109 1223.34 628.24 1224.03 629.679C1224.75 631.085 1225.11 632.696 1225.11 634.512V636.928C1225.11 639.739 1224.56 641.898 1223.46 643.406C1222.37 644.914 1220.86 645.942 1218.94 646.491C1217.02 647.039 1214.83 647.313 1212.36 647.313Z" fill="#131313"/>
<path d="M1258.97 647.313C1256.44 647.313 1254.21 647.074 1252.29 646.594C1250.4 646.08 1248.81 645.171 1247.51 643.869C1246.24 642.532 1245.28 640.596 1244.63 638.059C1244.01 635.523 1243.7 632.216 1243.7 628.137C1243.7 624.024 1244.03 620.7 1244.68 618.163C1245.33 615.593 1246.29 613.639 1247.56 612.302C1248.86 610.931 1250.46 609.989 1252.34 609.475C1254.26 608.961 1256.47 608.704 1258.97 608.704C1261.54 608.704 1263.79 608.961 1265.71 609.475C1267.63 609.989 1269.22 610.931 1270.49 612.302C1271.76 613.639 1272.7 615.593 1273.32 618.163C1273.97 620.7 1274.29 624.024 1274.29 628.137C1274.29 632.216 1273.97 635.523 1273.32 638.059C1272.7 640.596 1271.74 642.532 1270.44 643.869C1269.17 645.171 1267.58 646.08 1265.66 646.594C1263.77 647.074 1261.54 647.313 1258.97 647.313ZM1258.97 641.607C1260.65 641.607 1262.06 641.435 1263.19 641.093C1264.35 640.716 1265.28 640.064 1265.96 639.139C1266.65 638.179 1267.15 636.826 1267.46 635.078C1267.76 633.295 1267.92 630.982 1267.92 628.137C1267.92 625.121 1267.75 622.722 1267.4 620.939C1267.1 619.123 1266.6 617.752 1265.91 616.827C1265.23 615.867 1264.32 615.233 1263.19 614.924C1262.06 614.582 1260.65 614.41 1258.97 614.41C1257.4 614.41 1256.04 614.582 1254.91 614.924C1253.78 615.233 1252.85 615.867 1252.13 616.827C1251.45 617.752 1250.94 619.123 1250.59 620.939C1250.25 622.722 1250.08 625.121 1250.08 628.137C1250.08 630.982 1250.22 633.295 1250.49 635.078C1250.8 636.826 1251.3 638.179 1251.98 639.139C1252.67 640.064 1253.57 640.716 1254.71 641.093C1255.87 641.435 1257.29 641.607 1258.97 641.607Z" fill="#131313"/>
<path d="M1280.84 647.005V609.063H1285.93L1303.2 636.157V609.063H1309.58V647.005H1304.49L1287.21 619.911V647.005H1280.84Z" fill="#131313"/>
<path d="M1329.73 647.005V609.063H1345.41C1347.88 609.063 1349.93 609.509 1351.58 610.4C1353.26 611.257 1354.6 612.525 1355.59 614.205C1356.58 615.85 1357.29 617.838 1357.7 620.168C1358.14 622.499 1358.37 625.121 1358.37 628.034C1358.37 632.216 1357.89 635.712 1356.93 638.522C1355.97 641.298 1354.53 643.406 1352.61 644.846C1350.69 646.285 1348.29 647.005 1345.41 647.005H1329.73ZM1336.05 641.298H1344.79C1346.54 641.298 1347.93 640.784 1348.96 639.756C1350.02 638.728 1350.79 637.22 1351.27 635.232C1351.78 633.244 1352.04 630.845 1352.04 628.034C1352.04 625.429 1351.89 623.27 1351.58 621.556C1351.27 619.843 1350.83 618.489 1350.24 617.495C1349.66 616.501 1348.91 615.798 1347.98 615.387C1347.09 614.976 1346.03 614.77 1344.79 614.77H1336.05V641.298Z" fill="#131313"/>
<path d="M1361.61 647.005L1373.94 609.063H1381.96L1394.3 647.005H1387.67L1384.74 638.008H1371.01L1368.13 647.005H1361.61ZM1372.5 632.301H1383.2L1377.85 614.513L1372.5 632.301Z" fill="#131313"/>
<path d="M1404.58 647.005V614.77H1393.68V609.063H1421.8V614.77H1410.95V647.005H1404.58Z" fill="#131313"/>
<path d="M1421.25 647.005L1433.59 609.063H1441.61L1453.95 647.005H1447.32L1444.39 638.008H1430.66L1427.78 647.005H1421.25ZM1432.15 632.301H1442.84L1437.5 614.513L1432.15 632.301Z" fill="#131313"/>
<path d="M1458.97 647.056C1458.32 647.056 1457.99 646.748 1457.99 646.131V641.247C1457.99 640.596 1458.32 640.27 1458.97 640.27H1462.62C1463.27 640.27 1463.6 640.596 1463.6 641.247V646.131C1463.6 646.474 1463.49 646.714 1463.29 646.851C1463.12 646.988 1462.89 647.056 1462.62 647.056H1458.97Z" fill="#131313"/>
<path d="M1483.46 647.005V609.063H1499.14C1501.61 609.063 1503.67 609.509 1505.31 610.4C1506.99 611.257 1508.33 612.525 1509.32 614.205C1510.31 615.85 1511.02 617.838 1511.43 620.168C1511.87 622.499 1512.1 625.121 1512.1 628.034C1512.1 632.216 1511.62 635.712 1510.66 638.522C1509.7 641.298 1508.26 643.406 1506.34 644.846C1504.42 646.285 1502.02 647.005 1499.14 647.005H1483.46ZM1489.78 641.298H1498.52C1500.27 641.298 1501.66 640.784 1502.69 639.756C1503.75 638.728 1504.52 637.22 1505 635.232C1505.52 633.244 1505.77 630.845 1505.77 628.034C1505.77 625.429 1505.62 623.27 1505.31 621.556C1505 619.843 1504.56 618.489 1503.97 617.495C1503.39 616.501 1502.64 615.798 1501.71 615.387C1500.82 614.976 1499.76 614.77 1498.52 614.77H1489.78V641.298Z" fill="#131313"/>
<path d="M1515.34 647.005L1527.68 609.063H1535.7L1548.03 647.005H1541.4L1538.47 638.008H1524.75L1521.87 647.005H1515.34ZM1526.24 632.301H1536.93L1531.58 614.513L1526.24 632.301Z" fill="#131313"/>
<path d="M1558.31 647.005V614.77H1547.41V609.063H1575.53V614.77H1564.68V647.005H1558.31Z" fill="#131313"/>
<path d="M1574.98 647.005L1587.32 609.063H1595.34L1607.68 647.005H1601.05L1598.12 638.008H1584.39L1581.51 647.005H1574.98ZM1585.88 632.301H1596.57L1591.23 614.513L1585.88 632.301Z" fill="#131313"/>
<path d="M1633.97 647.005V614.77H1623.07V609.063H1651.19V614.77H1640.35V647.005H1633.97Z" fill="#131313"/>
<path d="M1655.57 647.005V609.063H1670.99C1672.4 609.063 1673.72 609.235 1674.95 609.578C1676.22 609.886 1677.33 610.469 1678.29 611.326C1679.29 612.182 1680.06 613.382 1680.61 614.924C1681.19 616.432 1681.48 618.403 1681.48 620.837C1681.48 622.722 1681.29 624.298 1680.91 625.566C1680.54 626.8 1680.04 627.811 1679.42 628.6C1678.81 629.388 1678.1 630.005 1677.31 630.451C1676.56 630.862 1675.81 631.205 1675.05 631.479L1682.35 647.005H1675.93L1669.35 632.404C1668.87 632.404 1668.3 632.404 1667.65 632.404C1667.03 632.404 1666.38 632.404 1665.7 632.404C1665.01 632.37 1664.34 632.353 1663.69 632.353C1663.04 632.318 1662.44 632.301 1661.89 632.301V647.005H1655.57ZM1661.89 627.314H1669.91C1670.67 627.314 1671.35 627.229 1671.97 627.057C1672.59 626.852 1673.13 626.509 1673.61 626.029C1674.09 625.549 1674.45 624.898 1674.69 624.076C1674.97 623.253 1675.1 622.19 1675.1 620.888C1675.1 619.62 1674.97 618.592 1674.69 617.803C1674.45 616.981 1674.09 616.364 1673.61 615.953C1673.13 615.507 1672.57 615.199 1671.92 615.027C1671.3 614.856 1670.63 614.77 1669.91 614.77H1661.89V627.314Z" fill="#131313"/>
<path d="M1685.08 647.005L1697.42 609.063H1705.44L1717.78 647.005H1711.15L1708.22 638.008H1694.49L1691.61 647.005H1685.08ZM1695.98 632.301H1706.68L1701.33 614.513L1695.98 632.301Z" fill="#131313"/>
<path d="M1722.44 647.005V609.063H1738.12C1740.59 609.063 1742.65 609.509 1744.29 610.4C1745.97 611.257 1747.31 612.525 1748.3 614.205C1749.3 615.85 1750 617.838 1750.41 620.168C1750.86 622.499 1751.08 625.121 1751.08 628.034C1751.08 632.216 1750.6 635.712 1749.64 638.522C1748.68 641.298 1747.24 643.406 1745.32 644.846C1743.4 646.285 1741 647.005 1738.12 647.005H1722.44ZM1728.77 641.298H1737.51C1739.25 641.298 1740.64 640.784 1741.67 639.756C1742.73 638.728 1743.5 637.22 1743.98 635.232C1744.5 633.244 1744.76 630.845 1744.76 628.034C1744.76 625.429 1744.6 623.27 1744.29 621.556C1743.98 619.843 1743.54 618.489 1742.96 617.495C1742.37 616.501 1741.62 615.798 1740.69 615.387C1739.8 614.976 1738.74 614.77 1737.51 614.77H1728.77V641.298Z" fill="#131313"/>
<path d="M1765.98 647.262C1765.15 647.262 1764.23 647.176 1763.2 647.005C1762.21 646.868 1761.25 646.542 1760.32 646.028C1759.4 645.48 1758.64 644.674 1758.06 643.612C1757.48 642.549 1757.19 641.093 1757.19 639.242V617.341C1757.19 615.73 1757.43 614.393 1757.91 613.331C1758.39 612.234 1759.02 611.377 1759.81 610.76C1760.63 610.143 1761.52 609.715 1762.48 609.475C1763.47 609.201 1764.45 609.063 1765.41 609.063C1767.81 609.063 1769.97 609.098 1771.89 609.166C1773.81 609.235 1775.56 609.303 1777.13 609.372C1778.74 609.441 1780.23 609.526 1781.61 609.629V614.924H1767.26C1766.1 614.924 1765.17 615.216 1764.49 615.798C1763.83 616.381 1763.51 617.289 1763.51 618.523V625.258L1779.29 625.618V630.605L1763.51 630.965V637.494C1763.51 638.522 1763.68 639.31 1764.02 639.859C1764.4 640.407 1764.86 640.784 1765.41 640.99C1765.99 641.195 1766.59 641.298 1767.21 641.298H1781.61V646.594C1780.1 646.731 1778.45 646.851 1776.67 646.954C1774.89 647.022 1773.07 647.074 1771.22 647.108C1769.4 647.176 1767.66 647.228 1765.98 647.262Z" fill="#131313"/>
<path d="M1798.92 647.313C1797.99 647.313 1797 647.279 1795.94 647.211C1794.91 647.176 1793.85 647.108 1792.75 647.005C1791.69 646.868 1790.68 646.748 1789.72 646.645C1788.76 646.508 1787.9 646.354 1787.15 646.182V641.195C1788.11 641.264 1789.22 641.333 1790.49 641.401C1791.79 641.47 1793.14 641.521 1794.55 641.555C1795.95 641.59 1797.31 641.607 1798.61 641.607C1799.98 641.607 1801.2 641.487 1802.26 641.247C1803.32 640.973 1804.15 640.51 1804.73 639.859C1805.31 639.208 1805.6 638.282 1805.6 637.083V635.283C1805.6 633.947 1805.22 632.918 1804.47 632.199C1803.72 631.479 1802.6 631.119 1801.13 631.119H1797.58C1794.12 631.119 1791.45 630.365 1789.56 628.857C1787.71 627.349 1786.79 624.761 1786.79 621.094V619.14C1786.79 615.473 1787.8 612.834 1789.82 611.223C1791.88 609.578 1794.81 608.755 1798.61 608.755C1799.91 608.755 1801.25 608.824 1802.62 608.961C1804.03 609.063 1805.36 609.201 1806.63 609.372C1807.9 609.543 1808.98 609.732 1809.87 609.937V614.924C1808.36 614.822 1806.63 614.719 1804.68 614.616C1802.76 614.513 1800.97 614.462 1799.33 614.462C1798.03 614.462 1796.88 614.599 1795.89 614.873C1794.89 615.147 1794.14 615.644 1793.62 616.364C1793.11 617.049 1792.85 618.078 1792.85 619.449V620.682C1792.85 622.293 1793.28 623.424 1794.14 624.076C1795.03 624.727 1796.3 625.052 1797.94 625.052H1801.9C1804.13 625.052 1805.96 625.464 1807.4 626.286C1808.84 627.109 1809.9 628.24 1810.59 629.679C1811.31 631.085 1811.67 632.696 1811.67 634.512V636.928C1811.67 639.739 1811.12 641.898 1810.02 643.406C1808.93 644.914 1807.42 645.942 1805.5 646.491C1803.58 647.039 1801.39 647.313 1798.92 647.313Z" fill="#131313"/>
<path d="M1831.24 647.005V609.063H1837.56V625.464H1853.55V609.063H1859.93V647.005H1853.55V631.17H1837.56V647.005H1831.24Z" fill="#131313"/>
<path d="M1875.83 647.262C1875.01 647.262 1874.08 647.176 1873.05 647.005C1872.06 646.868 1871.1 646.542 1870.17 646.028C1869.25 645.48 1868.49 644.674 1867.91 643.612C1867.33 642.549 1867.04 641.093 1867.04 639.242V617.341C1867.04 615.73 1867.28 614.393 1867.76 613.331C1868.24 612.234 1868.87 611.377 1869.66 610.76C1870.48 610.143 1871.37 609.715 1872.33 609.475C1873.33 609.201 1874.3 609.063 1875.26 609.063C1877.66 609.063 1879.82 609.098 1881.74 609.166C1883.66 609.235 1885.41 609.303 1886.98 609.372C1888.6 609.441 1890.09 609.526 1891.46 609.629V614.924H1877.11C1875.95 614.924 1875.02 615.216 1874.34 615.798C1873.69 616.381 1873.36 617.289 1873.36 618.523V625.258L1889.14 625.618V630.605L1873.36 630.965V637.494C1873.36 638.522 1873.53 639.31 1873.87 639.859C1874.25 640.407 1874.71 640.784 1875.26 640.99C1875.85 641.195 1876.45 641.298 1877.06 641.298H1891.46V646.594C1889.95 646.731 1888.3 646.851 1886.52 646.954C1884.74 647.022 1882.92 647.074 1881.07 647.108C1879.26 647.176 1877.51 647.228 1875.83 647.262Z" fill="#131313"/>
<path d="M1897.56 647.005V609.063H1912.99C1914.39 609.063 1915.71 609.235 1916.94 609.578C1918.21 609.886 1919.33 610.469 1920.29 611.326C1921.28 612.182 1922.05 613.382 1922.6 614.924C1923.18 616.432 1923.47 618.403 1923.47 620.837C1923.47 622.722 1923.28 624.298 1922.91 625.566C1922.53 626.8 1922.03 627.811 1921.42 628.6C1920.8 629.388 1920.1 630.005 1919.31 630.451C1918.55 630.862 1917.8 631.205 1917.05 631.479L1924.35 647.005H1917.92L1911.34 632.404C1910.86 632.404 1910.29 632.404 1909.64 632.404C1909.03 632.404 1908.38 632.404 1907.69 632.404C1907 632.37 1906.34 632.353 1905.69 632.353C1905.03 632.318 1904.43 632.301 1903.89 632.301V647.005H1897.56ZM1903.89 627.314H1911.91C1912.66 627.314 1913.35 627.229 1913.96 627.057C1914.58 626.852 1915.13 626.509 1915.61 626.029C1916.09 625.549 1916.45 624.898 1916.69 624.076C1916.96 623.253 1917.1 622.19 1917.1 620.888C1917.1 619.62 1916.96 618.592 1916.69 617.803C1916.45 616.981 1916.09 616.364 1915.61 615.953C1915.13 615.507 1914.56 615.199 1913.91 615.027C1913.29 614.856 1912.63 614.77 1911.91 614.77H1903.89V627.314Z" fill="#131313"/>
<path d="M1938.23 647.262C1937.41 647.262 1936.49 647.176 1935.46 647.005C1934.46 646.868 1933.5 646.542 1932.58 646.028C1931.65 645.48 1930.9 644.674 1930.32 643.612C1929.73 642.549 1929.44 641.093 1929.44 639.242V617.341C1929.44 615.73 1929.68 614.393 1930.16 613.331C1930.64 612.234 1931.28 611.377 1932.07 610.76C1932.89 610.143 1933.78 609.715 1934.74 609.475C1935.73 609.201 1936.71 609.063 1937.67 609.063C1940.07 609.063 1942.23 609.098 1944.15 609.166C1946.07 609.235 1947.81 609.303 1949.39 609.372C1951 609.441 1952.49 609.526 1953.86 609.629V614.924H1939.52C1938.35 614.924 1937.43 615.216 1936.74 615.798C1936.09 616.381 1935.77 617.289 1935.77 618.523V625.258L1951.55 625.618V630.605L1935.77 630.965V637.494C1935.77 638.522 1935.94 639.31 1936.28 639.859C1936.66 640.407 1937.12 640.784 1937.67 640.99C1938.25 641.195 1938.85 641.298 1939.47 641.298H1953.86V646.594C1952.36 646.731 1950.71 646.851 1948.93 646.954C1947.15 647.022 1945.33 647.074 1943.48 647.108C1941.66 647.176 1939.91 647.228 1938.23 647.262Z" fill="#131313"/>
<path d="M1960.33 647.056C1959.68 647.056 1959.35 646.748 1959.35 646.131V641.247C1959.35 640.596 1959.68 640.27 1960.33 640.27H1963.98C1964.63 640.27 1964.96 640.596 1964.96 641.247V646.131C1964.96 646.474 1964.85 646.714 1964.65 646.851C1964.48 646.988 1964.25 647.056 1963.98 647.056H1960.33Z" fill="#131313"/>
</g>
</g>
<defs>
<radialGradient id="paint0_radial_3088_716" cx="0" cy="0" r="1" gradientUnits="userSpaceOnUse" gradientTransform="translate(113.393 113.393) rotate(90) scale(113.393)">
<stop offset="0.490385" stop-color="#4141FC"/>
<stop offset="0.822115" stop-opacity="0"/>
</radialGradient>
<radialGradient id="paint1_radial_3088_716" cx="0" cy="0" r="1" gradientUnits="userSpaceOnUse" gradientTransform="translate(113.393 113.393) rotate(90) scale(113.393)">
<stop offset="0.490385" stop-color="#4141FC"/>
<stop offset="0.822115" stop-opacity="0"/>
</radialGradient>
<clipPath id="clip0_3088_716">
<rect width="3000" height="1000" fill="white"/>
</clipPath>
<clipPath id="clip1_3088_716">
<rect width="1001.34" height="333.779" fill="white" transform="translate(999 331)"/>
</clipPath>
<clipPath id="clip2_3088_716">
<rect width="194.61" height="179.561" fill="white" transform="translate(1034.05 375.726)"/>
</clipPath>
</defs>
</svg>
