<svg width="3551" height="685" viewBox="0 0 3551 685" fill="none" xmlns="http://www.w3.org/2000/svg">
<g clip-path="url(#clip0_3018_307)">
<rect width="865.085" height="865.085" transform="translate(-61.3672 -89.082)" fill="url(#paint0_radial_3018_307)"/>
<path d="M741.605 449.395L741.528 455.484C738.35 580.948 637.226 682.071 511.763 685.25L505.673 685.327H393.324V640.388H505.673C611.155 640.388 696.666 554.877 696.666 449.395V359.515H741.605V449.395ZM640.491 393.221L640.426 398.146C637.854 499.715 555.993 581.576 454.425 584.147L449.499 584.213H393.324V539.273H449.499C530.162 539.273 595.552 473.883 595.552 393.221V359.515H640.491V393.221ZM396.803 179.802C469.653 181.647 528.143 241.281 528.143 314.576V359.516L528.099 362.994C526.283 434.689 468.497 492.474 396.803 494.29L393.324 494.334V449.395C442.963 449.395 483.203 409.154 483.203 359.516V314.576C483.203 266.49 445.441 227.228 397.954 224.818L393.324 224.697V179.758L396.803 179.802ZM449.499 89.8789L454.425 89.9443C557.63 92.5573 640.491 177.037 640.491 280.872V314.575H595.552V280.872C595.552 200.209 530.162 134.818 449.499 134.818H393.324V89.8789H449.499ZM505.673 0L511.763 0.0771484C639.25 3.30709 741.605 107.667 741.605 235.933V314.575H696.666V235.933C696.666 130.45 611.155 44.9395 505.673 44.9395H393.324V0H505.673Z" fill="#F5F5FF"/>
<path d="M45.043 449.395C45.0431 554.877 130.553 640.387 236.035 640.387H348.384V685.326H236.035L229.946 685.25C104.482 682.072 3.35818 580.948 0.179688 455.484L0.103516 449.395V359.515H45.043V449.395ZM146.156 393.22C146.156 473.883 211.547 539.274 292.21 539.274H348.384V584.213H292.21L287.283 584.147C185.715 581.575 103.854 499.715 101.282 398.147L101.217 393.22V359.515H146.156V393.22ZM348.384 224.698L343.754 224.818C296.267 227.227 258.505 266.491 258.505 314.576V359.516C258.505 409.154 298.745 449.395 348.384 449.395V494.334L344.906 494.29C273.211 492.475 215.425 434.688 213.609 362.993L213.565 359.516V314.576C213.565 241.281 272.055 181.647 344.906 179.802L348.384 179.758V224.698ZM348.384 44.9397H236.035C130.553 44.9398 45.0431 130.45 45.043 235.932V314.575H0.103516V235.932C0.103658 107.666 102.459 3.30616 229.946 0.076416L236.035 0.000244141H348.384V44.9397ZM348.384 134.819H292.21C211.547 134.819 146.156 200.208 146.156 280.871V314.575H101.217V280.871C101.217 177.036 184.078 92.5577 287.283 89.9446L292.21 89.8792H348.384V134.819Z" fill="#F5F5FF"/>
<path d="M348.383 460.629L303.443 460.629L303.443 213.462L348.383 213.462L348.383 460.629Z" fill="#F5F5FF"/>
<path d="M241.652 286.489L292.209 207.845L325.914 213.462L320.296 381.985L309.062 466.247L247.27 410.072L241.652 286.489Z" fill="#F5F5FF"/>
<path d="M500.055 286.489L449.498 207.845L415.793 213.462L421.411 381.985L432.645 466.247L494.437 410.072L500.055 286.489Z" fill="#F5F5FF"/>
<path d="M438.264 460.629L393.324 460.629L393.324 213.462L438.264 213.462L438.264 460.629Z" fill="#F5F5FF"/>
<rect width="865.085" height="865.085" transform="translate(-61.3672 -89.082)" fill="url(#paint1_radial_3018_307)"/>
<path d="M741.605 449.395L741.528 455.484C738.35 580.948 637.226 682.071 511.763 685.25L505.673 685.327H393.324V640.388H505.673C611.155 640.388 696.666 554.877 696.666 449.395V359.515H741.605V449.395ZM640.491 393.221L640.426 398.146C637.854 499.715 555.993 581.576 454.425 584.147L449.499 584.213H393.324V539.273H449.499C530.162 539.273 595.552 473.883 595.552 393.221V359.515H640.491V393.221ZM396.803 179.802C469.653 181.647 528.143 241.281 528.143 314.576V359.516L528.099 362.994C526.283 434.689 468.497 492.474 396.803 494.29L393.324 494.334V449.395C442.963 449.395 483.203 409.154 483.203 359.516V314.576C483.203 266.49 445.441 227.228 397.954 224.818L393.324 224.697V179.758L396.803 179.802ZM449.499 89.8789L454.425 89.9443C557.63 92.5573 640.491 177.037 640.491 280.872V314.575H595.552V280.872C595.552 200.209 530.162 134.818 449.499 134.818H393.324V89.8789H449.499ZM505.673 0L511.763 0.0771484C639.25 3.30709 741.605 107.667 741.605 235.933V314.575H696.666V235.933C696.666 130.45 611.155 44.9395 505.673 44.9395H393.324V0H505.673Z" fill="#F5F5FF"/>
<path d="M45.043 449.395C45.0431 554.877 130.553 640.387 236.035 640.387H348.384V685.326H236.035L229.946 685.25C104.482 682.072 3.35818 580.948 0.179688 455.484L0.103516 449.395V359.515H45.043V449.395ZM146.156 393.22C146.156 473.883 211.547 539.274 292.21 539.274H348.384V584.213H292.21L287.283 584.147C185.715 581.575 103.854 499.715 101.282 398.147L101.217 393.22V359.515H146.156V393.22ZM348.384 224.698L343.754 224.818C296.267 227.227 258.505 266.491 258.505 314.576V359.516C258.505 409.154 298.745 449.395 348.384 449.395V494.334L344.906 494.29C273.211 492.475 215.425 434.688 213.609 362.993L213.565 359.516V314.576C213.565 241.281 272.055 181.647 344.906 179.802L348.384 179.758V224.698ZM348.384 44.9397H236.035C130.553 44.9398 45.0431 130.45 45.043 235.932V314.575H0.103516V235.932C0.103658 107.666 102.459 3.30616 229.946 0.076416L236.035 0.000244141H348.384V44.9397ZM348.384 134.819H292.21C211.547 134.819 146.156 200.208 146.156 280.871V314.575H101.217V280.871C101.217 177.036 184.078 92.5577 287.283 89.9446L292.21 89.8792H348.384V134.819Z" fill="#F5F5FF"/>
<path d="M348.383 460.629L303.443 460.629L303.443 213.462L348.383 213.462L348.383 460.629Z" fill="#F5F5FF"/>
<path d="M241.652 286.489L292.209 207.845L325.914 213.462L320.296 381.985L309.062 466.247L247.27 410.072L241.652 286.489Z" fill="#F5F5FF"/>
<path d="M500.055 286.489L449.498 207.845L415.793 213.462L421.411 381.985L432.645 466.247L494.437 410.072L500.055 286.489Z" fill="#F5F5FF"/>
<path d="M438.264 460.629L393.324 460.629L393.324 213.462L438.264 213.462L438.264 460.629Z" fill="#F5F5FF"/>
</g>
<path d="M911.664 536V112.184H1086.82C1114.38 112.184 1137.35 117.161 1155.73 127.115C1174.49 136.686 1189.42 150.852 1200.53 169.612C1211.63 187.988 1219.48 210.194 1224.07 236.228C1229.05 262.261 1231.54 291.55 1231.54 324.092C1231.54 370.8 1226.18 409.851 1215.46 441.244C1204.74 472.255 1188.66 495.801 1167.22 511.88C1145.78 527.96 1118.98 536 1086.82 536H911.664ZM982.3 472.255H1079.93C1099.45 472.255 1114.96 466.512 1126.44 455.027C1138.31 443.541 1146.93 426.696 1152.29 404.491C1158.03 382.285 1160.9 355.486 1160.9 324.092C1160.9 294.995 1159.18 270.876 1155.73 251.733C1152.29 232.591 1147.31 217.468 1140.8 206.365C1134.29 195.263 1125.87 187.414 1115.53 182.82C1105.58 178.226 1093.71 175.929 1079.93 175.929H982.3V472.255Z" fill="#F5F5FF"/>
<path d="M1267.72 536L1405.55 112.184H1495.14L1632.96 536H1558.88L1526.15 435.502H1372.82L1340.66 536H1267.72ZM1389.47 371.757H1508.92L1449.2 173.057L1389.47 371.757Z" fill="#F5F5FF"/>
<path d="M1747.74 536V175.929H1625.99V112.184H1940.12V175.929H1818.95V536H1747.74Z" fill="#F5F5FF"/>
<path d="M1933.97 536L2071.8 112.184H2161.39L2299.21 536H2225.13L2192.4 435.502H2039.07L2006.91 536H1933.97ZM2055.72 371.757H2175.17L2115.45 173.057L2055.72 371.757Z" fill="#F5F5FF"/>
<path d="M2501.58 536V112.184H2676.73C2704.3 112.184 2727.27 117.161 2745.65 127.115C2764.41 136.686 2779.34 150.852 2790.44 169.612C2801.54 187.988 2809.39 210.194 2813.99 236.228C2818.96 262.261 2821.45 291.55 2821.45 324.092C2821.45 370.8 2816.09 409.851 2805.37 441.244C2794.65 472.255 2778.57 495.801 2757.13 511.88C2735.69 527.96 2708.89 536 2676.73 536H2501.58ZM2572.22 472.255H2669.84C2689.37 472.255 2704.87 466.512 2716.36 455.027C2728.23 443.541 2736.84 426.696 2742.2 404.491C2747.94 382.285 2750.82 355.486 2750.82 324.092C2750.82 294.995 2749.09 270.876 2745.65 251.733C2742.2 232.591 2737.22 217.468 2730.72 206.365C2724.21 195.263 2715.79 187.414 2705.45 182.82C2695.49 178.226 2683.63 175.929 2669.84 175.929H2572.22V472.255Z" fill="#F5F5FF"/>
<path d="M2987.87 538.871C2978.68 538.871 2968.34 537.914 2956.86 536C2945.75 534.469 2935.03 530.831 2924.7 525.089C2914.36 518.963 2905.94 509.966 2899.43 498.098C2892.92 486.229 2889.67 469.958 2889.67 449.284V204.642C2889.67 186.648 2892.35 171.717 2897.71 159.849C2903.07 147.598 2910.15 138.026 2918.95 131.135C2928.14 124.244 2938.1 119.458 2948.82 116.778C2959.92 113.715 2970.83 112.184 2981.55 112.184C3008.35 112.184 3032.47 112.567 3053.91 113.332C3075.35 114.098 3094.87 114.864 3112.48 115.629C3130.48 116.395 3147.13 117.352 3162.45 118.501V177.651H3002.22C2989.21 177.651 2978.87 180.906 2971.21 187.414C2963.94 193.923 2960.3 204.068 2960.3 217.851V293.081L3136.6 297.101V352.806L2960.3 356.826V429.759C2960.3 441.244 2962.22 450.05 2966.04 456.176C2970.26 462.301 2975.42 466.512 2981.55 468.81C2988.06 471.107 2994.76 472.255 3001.65 472.255H3162.45V531.406C3145.6 532.937 3127.22 534.277 3107.32 535.426C3087.41 536.191 3067.12 536.766 3046.44 537.148C3026.15 537.914 3006.63 538.488 2987.87 538.871Z" fill="#F5F5FF"/>
<path d="M3470.12 536L3204.8 112.184H3282.9L3548.79 536H3470.12ZM3206.52 536L3346.65 307.438L3383.4 367.737L3284.62 536H3206.52ZM3407.52 345.34L3371.91 284.467L3471.84 112.184H3550.51L3407.52 345.34Z" fill="#F5F5FF"/>
<defs>
<radialGradient id="paint0_radial_3018_307" cx="0" cy="0" r="1" gradientUnits="userSpaceOnUse" gradientTransform="translate(432.542 432.542) rotate(90) scale(432.542)">
<stop offset="0.490385" stop-color="#4141FC"/>
<stop offset="0.822115" stop-opacity="0"/>
</radialGradient>
<radialGradient id="paint1_radial_3018_307" cx="0" cy="0" r="1" gradientUnits="userSpaceOnUse" gradientTransform="translate(432.542 432.542) rotate(90) scale(432.542)">
<stop offset="0.490385" stop-color="#4141FC"/>
<stop offset="0.822115" stop-opacity="0"/>
</radialGradient>
<clipPath id="clip0_3018_307">
<rect width="742.35" height="684.941" fill="white"/>
</clipPath>
</defs>
</svg>
