<svg width="743" height="685" viewBox="0 0 743 685" fill="none" xmlns="http://www.w3.org/2000/svg">
<g clip-path="url(#clip0_3018_200)">
<rect width="865.085" height="865.085" transform="translate(-61.3672 -89.082)" fill="url(#paint0_radial_3018_200)"/>
<path d="M741.605 449.395L741.528 455.484C738.35 580.948 637.226 682.071 511.763 685.25L505.673 685.327H393.324V640.388H505.673C611.155 640.388 696.666 554.877 696.666 449.395V359.515H741.605V449.395ZM640.491 393.221L640.426 398.146C637.854 499.715 555.993 581.576 454.425 584.147L449.499 584.213H393.324V539.273H449.499C530.162 539.273 595.552 473.883 595.552 393.221V359.515H640.491V393.221ZM396.803 179.802C469.653 181.647 528.143 241.281 528.143 314.576V359.516L528.099 362.994C526.283 434.689 468.497 492.474 396.803 494.29L393.324 494.334V449.395C442.963 449.395 483.203 409.154 483.203 359.516V314.576C483.203 266.49 445.441 227.228 397.954 224.818L393.324 224.697V179.758L396.803 179.802ZM449.499 89.8789L454.425 89.9443C557.63 92.5573 640.491 177.037 640.491 280.872V314.575H595.552V280.872C595.552 200.209 530.162 134.818 449.499 134.818H393.324V89.8789H449.499ZM505.673 0L511.763 0.0771484C639.25 3.30709 741.605 107.667 741.605 235.933V314.575H696.666V235.933C696.666 130.45 611.155 44.9395 505.673 44.9395H393.324V0H505.673Z" fill="#F5F5FF"/>
<path d="M45.043 449.395C45.0431 554.877 130.553 640.387 236.035 640.387H348.384V685.327H236.035L229.946 685.25C104.482 682.072 3.35818 580.948 0.179688 455.484L0.103516 449.395V359.515H45.043V449.395ZM146.156 393.22C146.156 473.883 211.547 539.274 292.21 539.274H348.384V584.213H292.21L287.283 584.147C185.715 581.575 103.854 499.715 101.282 398.147L101.217 393.22V359.515H146.156V393.22ZM348.384 224.698L343.754 224.818C296.267 227.228 258.505 266.491 258.505 314.577V359.516C258.505 409.155 298.745 449.395 348.384 449.395V494.334L344.906 494.291C273.211 492.475 215.425 434.689 213.609 362.994L213.565 359.516V314.577C213.565 241.281 272.055 181.647 344.906 179.802L348.384 179.758V224.698ZM348.384 44.9399H236.035C130.553 44.94 45.0431 130.45 45.043 235.932V314.576H0.103516V235.932C0.103658 107.666 102.459 3.3064 229.946 0.0766602L236.035 0.000488281H348.384V44.9399ZM348.384 134.819H292.21C211.547 134.819 146.156 200.209 146.156 280.872V314.576H101.217V280.872C101.217 177.036 184.078 92.5579 287.283 89.9448L292.21 89.8794H348.384V134.819Z" fill="#F5F5FF"/>
<path d="M348.383 460.629L303.443 460.629L303.443 213.462L348.383 213.462L348.383 460.629Z" fill="#F5F5FF"/>
<path d="M241.652 286.489L292.209 207.845L325.914 213.462L320.296 381.985L309.062 466.247L247.27 410.072L241.652 286.489Z" fill="#F5F5FF"/>
<path d="M500.055 286.489L449.498 207.845L415.793 213.462L421.411 381.985L432.645 466.247L494.437 410.072L500.055 286.489Z" fill="#F5F5FF"/>
<path d="M438.264 460.629L393.324 460.629L393.324 213.462L438.264 213.462L438.264 460.629Z" fill="#F5F5FF"/>
<rect width="865.085" height="865.085" transform="translate(-61.3672 -89.082)" fill="url(#paint1_radial_3018_200)"/>
<path d="M741.605 449.395L741.528 455.484C738.35 580.948 637.226 682.071 511.763 685.25L505.673 685.327H393.324V640.388H505.673C611.155 640.388 696.666 554.877 696.666 449.395V359.515H741.605V449.395ZM640.491 393.221L640.426 398.146C637.854 499.715 555.993 581.576 454.425 584.147L449.499 584.213H393.324V539.273H449.499C530.162 539.273 595.552 473.883 595.552 393.221V359.515H640.491V393.221ZM396.803 179.802C469.653 181.647 528.143 241.281 528.143 314.576V359.516L528.099 362.994C526.283 434.689 468.497 492.474 396.803 494.29L393.324 494.334V449.395C442.963 449.395 483.203 409.154 483.203 359.516V314.576C483.203 266.49 445.441 227.228 397.954 224.818L393.324 224.697V179.758L396.803 179.802ZM449.499 89.8789L454.425 89.9443C557.63 92.5573 640.491 177.037 640.491 280.872V314.575H595.552V280.872C595.552 200.209 530.162 134.818 449.499 134.818H393.324V89.8789H449.499ZM505.673 0L511.763 0.0771484C639.25 3.30709 741.605 107.667 741.605 235.933V314.575H696.666V235.933C696.666 130.45 611.155 44.9395 505.673 44.9395H393.324V0H505.673Z" fill="#F5F5FF"/>
<path d="M45.043 449.395C45.0431 554.877 130.553 640.387 236.035 640.387H348.384V685.327H236.035L229.946 685.25C104.482 682.072 3.35818 580.948 0.179688 455.484L0.103516 449.395V359.515H45.043V449.395ZM146.156 393.22C146.156 473.883 211.547 539.274 292.21 539.274H348.384V584.213H292.21L287.283 584.147C185.715 581.575 103.854 499.715 101.282 398.147L101.217 393.22V359.515H146.156V393.22ZM348.384 224.698L343.754 224.818C296.267 227.228 258.505 266.491 258.505 314.577V359.516C258.505 409.155 298.745 449.395 348.384 449.395V494.334L344.906 494.291C273.211 492.475 215.425 434.689 213.609 362.994L213.565 359.516V314.577C213.565 241.281 272.055 181.647 344.906 179.802L348.384 179.758V224.698ZM348.384 44.9399H236.035C130.553 44.94 45.0431 130.45 45.043 235.932V314.576H0.103516V235.932C0.103658 107.666 102.459 3.3064 229.946 0.0766602L236.035 0.000488281H348.384V44.9399ZM348.384 134.819H292.21C211.547 134.819 146.156 200.209 146.156 280.872V314.576H101.217V280.872C101.217 177.036 184.078 92.5579 287.283 89.9448L292.21 89.8794H348.384V134.819Z" fill="#F5F5FF"/>
<path d="M348.383 460.629L303.443 460.629L303.443 213.462L348.383 213.462L348.383 460.629Z" fill="#F5F5FF"/>
<path d="M241.652 286.489L292.209 207.845L325.914 213.462L320.296 381.985L309.062 466.247L247.27 410.072L241.652 286.489Z" fill="#F5F5FF"/>
<path d="M500.055 286.489L449.498 207.845L415.793 213.462L421.411 381.985L432.645 466.247L494.437 410.072L500.055 286.489Z" fill="#F5F5FF"/>
<path d="M438.264 460.629L393.324 460.629L393.324 213.462L438.264 213.462L438.264 460.629Z" fill="#F5F5FF"/>
</g>
<defs>
<radialGradient id="paint0_radial_3018_200" cx="0" cy="0" r="1" gradientUnits="userSpaceOnUse" gradientTransform="translate(432.542 432.542) rotate(90) scale(432.542)">
<stop offset="0.490385" stop-color="#4141FC"/>
<stop offset="0.822115" stop-opacity="0"/>
</radialGradient>
<radialGradient id="paint1_radial_3018_200" cx="0" cy="0" r="1" gradientUnits="userSpaceOnUse" gradientTransform="translate(432.542 432.542) rotate(90) scale(432.542)">
<stop offset="0.490385" stop-color="#4141FC"/>
<stop offset="0.822115" stop-opacity="0"/>
</radialGradient>
<clipPath id="clip0_3018_200">
<rect width="742.35" height="684.941" fill="white"/>
</clipPath>
</defs>
</svg>
